<svg id="Capa_1" data-name="Capa 1" xmlns="http://www.w3.org/2000/svg" viewBox="0 0 76.02 71.48"><title>ico2</title><path d="M21,57.1c1.21-.43,2.58-1,4-1.6C30.39,53.11,38,48.71,43.68,41.26a38.84,38.84,0,0,0,7.39-17.48A1.38,1.38,0,0,0,50,22.22l-4.44-.95L57.62,10.88,64.51,25.2l-4.86-.69h-.19a1.37,1.37,0,0,0-1.32,1,51.62,51.62,0,0,1-5.12,12,36,36,0,0,1-8.48,9.77C38.74,51.88,31,55.12,21,57.1Zm-8.9,1.82a2.35,2.35,0,0,0,2.33,2l.31,0c13.82-1.82,24.15-5.58,31.56-11.52a38.61,38.61,0,0,0,9.13-10.49,52.86,52.86,0,0,0,5-11.49l4.42.63a2.36,2.36,0,0,0,2.45-3.36L59.87,9.23h0A2.34,2.34,0,0,0,58.22,8a2.31,2.31,0,0,0-2,.52L43.16,19.71a2.35,2.35,0,0,0,1.05,4.09l3.91.83a35.79,35.79,0,0,1-6.63,15C36.2,46.58,29,50.73,23.86,53a54.54,54.54,0,0,1-7.11,2.57c-.91.26-1.64.43-2.08.53l-.54.11-.12,0a2.36,2.36,0,0,0-2,2.69Z" fill="#fff"/><path d="M74.73,68.65a1.9,1.9,0,0,0-1.91-1.91H5V4A1.91,1.91,0,0,0,1.22,4h0V68.65A1.92,1.92,0,0,0,1.78,70a1.94,1.94,0,0,0,1.35.56H72.82a1.91,1.91,0,0,0,1.91-1.91Z" fill="#fff"/></svg>