<svg id="Capa_1" data-name="Capa 1" xmlns="http://www.w3.org/2000/svg" viewBox="0 0 71.42 69.32"><title>ico3</title><path d="M32.52,35.17a7.42,7.42,0,0,0-4.41-1.45,7.49,7.49,0,1,0,7.49,7.49,7.37,7.37,0,0,0-1.45-4.4l5.52-5.52A15.39,15.39,0,1,1,38,29.66l-5.51,5.51ZM27.29,42a1.2,1.2,0,0,0,.82.34,1.18,1.18,0,0,0,.82-.34l3.56-3.56a5.11,5.11,0,0,1,.8,2.74,5.18,5.18,0,1,1-2.43-4.38l-3.57,3.56a1.16,1.16,0,0,0,0,1.64ZM28.11,16a25.2,25.2,0,0,1,17,6.61L39.67,28a17.58,17.58,0,1,0,1.63,1.63l5.46-5.45A25.24,25.24,0,1,1,28.11,16Zm0,52.83A27.56,27.56,0,0,0,48.4,22.56l5.19-5.19a1.11,1.11,0,0,0,.81.48l10.86,1.2h.13a1.15,1.15,0,0,0,.12-2.3L55.33,15.63l3-3,.14,0,10.86,1.19h.13a1.16,1.16,0,0,0,.13-2.31l-9.18-1L66,5a1.16,1.16,0,0,0,0-1.64,1.15,1.15,0,0,0-1.63,0L58.62,9.07l-3-7.79a1.15,1.15,0,1,0-2.15.84l3.34,8.64a.35.35,0,0,1,.05.08l-2.46,2.47-3-8.06a1.16,1.16,0,0,0-2.17.82L52.54,15a.6.6,0,0,0,.06.11l-5.84,5.84A27.56,27.56,0,1,0,28.11,68.78Z" fill="#fff"/></svg>