<svg id="Capa_1" data-name="Capa 1" xmlns="http://www.w3.org/2000/svg" xmlns:xlink="http://www.w3.org/1999/xlink" viewBox="0 0 146.88 157.63"><defs><linearGradient id="Degradado_sin_nombre_14" x1="-18.45" y1="16.05" x2="156.69" y2="170.97" gradientUnits="userSpaceOnUse"><stop offset="0" stop-color="#875528"/><stop offset="0.17" stop-color="#f4eaa1"/><stop offset="0.42" stop-color="#a87c33"/><stop offset="0.61" stop-color="#fef8af"/><stop offset="0.77" stop-color="#b7944b"/><stop offset="0.92" stop-color="#f1e69d"/><stop offset="1" stop-color="#a1742b"/></linearGradient><linearGradient id="Degradado_sin_nombre_14-2" x1="20.54" y1="-28.02" x2="195.68" y2="126.89" xlink:href="#Degradado_sin_nombre_14"/><linearGradient id="Degradado_sin_nombre_14-3" x1="-63.9" y1="67.44" x2="111.24" y2="222.35" xlink:href="#Degradado_sin_nombre_14"/><linearGradient id="Degradado_sin_nombre_14-4" x1="-44.07" y1="45.02" x2="131.07" y2="199.93" xlink:href="#Degradado_sin_nombre_14"/><linearGradient id="Degradado_sin_nombre_14-5" x1="-29.9" y1="29" x2="145.25" y2="183.91" xlink:href="#Degradado_sin_nombre_14"/><linearGradient id="Degradado_sin_nombre_14-6" x1="-15.49" y1="12.71" x2="159.65" y2="167.62" xlink:href="#Degradado_sin_nombre_14"/><linearGradient id="Degradado_sin_nombre_14-7" x1="-14.09" y1="19.91" x2="62.67" y2="87.81" xlink:href="#Degradado_sin_nombre_14"/><linearGradient id="Degradado_sin_nombre_14-8" x1="75.77" y1="20.83" x2="143.35" y2="80.6" xlink:href="#Degradado_sin_nombre_14"/><linearGradient id="Degradado_sin_nombre_14-9" x1="6.39" y1="129.62" x2="37.52" y2="157.15" xlink:href="#Degradado_sin_nombre_14"/><linearGradient id="Degradado_sin_nombre_14-10" x1="43.32" y1="122.31" x2="79.66" y2="154.46" xlink:href="#Degradado_sin_nombre_14"/><linearGradient id="Degradado_sin_nombre_14-11" x1="84.35" y1="130.05" x2="108.48" y2="151.39" xlink:href="#Degradado_sin_nombre_14"/><linearGradient id="Degradado_sin_nombre_14-12" x1="116.68" y1="129.62" x2="142.13" y2="152.12" xlink:href="#Degradado_sin_nombre_14"/></defs><title>diez_years</title><path d="M51.92,82.79V99.35H2.63V82.79H15.92V19.19H1.73V2.63H39.47V82.79Z" fill="url(#Degradado_sin_nombre_14)"/><path d="M145.62,50.7q0,24.47-9.3,37.19t-26.83,12.74q-17.58,0-26.86-12.74T73.36,50.7q0-23.87,9.21-36.84T109.49.9q17.91,0,27,12.68T145.62,50.7Zm-47.94,0q0,16.81,2.89,24.91t9.05,8.08q6.16,0,9-8.08t2.83-24.91q0-33.11-11.81-33.11-6.16,0-9.05,8.28T97.68,50.7Z" fill="url(#Degradado_sin_nombre_14-2)"/><path d="M33.47,137.7v11.07h4.84v6.89H24v-2.34a14.32,14.32,0,0,1-8.14,2.79A11.69,11.69,0,0,1,8,153.58a8.53,8.53,0,0,1-3-6.83,9,9,0,0,1,3.31-7.3,13.38,13.38,0,0,1,8.81-2.74,13,13,0,0,1,3.4.41A18.27,18.27,0,0,1,24,138.53v-2.39a4.83,4.83,0,0,0-1.42-3.64,6,6,0,0,0-4.27-1.37,7.55,7.55,0,0,0-5.49,2.39L5.1,132.13q3.51-7.06,14.46-7.06,7.52,0,10.71,3.09T33.47,137.7ZM18,150.17q2.57,0,6-3.08v-2.67a10.57,10.57,0,0,0-5.64-2,4.6,4.6,0,0,0-3.13,1,3.53,3.53,0,0,0-1.08,2.76Q14.12,150.17,18,150.17Z" fill="url(#Degradado_sin_nombre_14-3)"/><path d="M73.56,136.59v12.18h4.5v6.89H64v-18.3a5.62,5.62,0,0,0-.64-3.06,2.4,2.4,0,0,0-2.15-1,9.43,9.43,0,0,0-5.49,2v13.46h4.67v6.89H41.69v-6.89h4.56v-16H41.69v-7h14v2.82a14.46,14.46,0,0,1,8.77-3.21,8.22,8.22,0,0,1,6.77,2.83C72.79,130.07,73.56,132.88,73.56,136.59ZM65.34,122a12.41,12.41,0,0,1-5.55-1.68,12,12,0,0,0-4.52-1.57c-1.44,0-2.18,1-2.22,3.07H48.67q0-4.66,1.6-6.92a5.6,5.6,0,0,1,4.88-2.27,8.18,8.18,0,0,1,2.27.29,23.84,23.84,0,0,1,3,1.22c1.78.86,2.92,1.37,3.4,1.54a4.44,4.44,0,0,0,1.49.25,1.73,1.73,0,0,0,1.55-.75,5.42,5.42,0,0,0,.56-2.69h4.18Q71.57,122,65.34,122Z" fill="url(#Degradado_sin_nombre_14-4)"/><path d="M112.15,140.69a15.63,15.63,0,0,1-2.11,8.05,15.09,15.09,0,0,1-5.69,5.61,15.75,15.75,0,0,1-7.88,2,16.25,16.25,0,0,1-8.14-2,14.42,14.42,0,0,1-5.59-5.61,16.17,16.17,0,0,1-2-8.05,15.58,15.58,0,0,1,2.07-8,14.78,14.78,0,0,1,5.67-5.59,16.8,16.8,0,0,1,16,0,14.63,14.63,0,0,1,5.61,5.59A15.94,15.94,0,0,1,112.15,140.69Zm-15.74,8.25a5.09,5.09,0,0,0,4.37-2.17,10.59,10.59,0,0,0,1.58-6.25,9.91,9.91,0,0,0-1.58-6,5.18,5.18,0,0,0-4.43-2.15A5,5,0,0,0,92,134.53q-1.48,2.11-1.48,6.39a9.67,9.67,0,0,0,1.61,5.82A5,5,0,0,0,96.41,148.94Z" fill="url(#Degradado_sin_nombre_14-5)"/><path d="M134.54,126.81v-1.06h6.8v8.77h-6.8q-.89-3.17-6.55-3.16-4.06,0-4.06,2.27a1.56,1.56,0,0,0,1.08,1.48,12.41,12.41,0,0,0,3.16.8,37.26,37.26,0,0,1,9.19,2.12,9.92,9.92,0,0,1,4.69,3.42,8.78,8.78,0,0,1,1.34,4.93,9,9,0,0,1-3.23,7.36c-2.16,1.75-5.08,2.63-8.78,2.63s-6-.72-7.34-2.16v1.45H117.1v-10.3H124a4.69,4.69,0,0,0,2.06,3.36,7.63,7.63,0,0,0,4.4,1.22,9.37,9.37,0,0,0,3.78-.58,2.08,2.08,0,0,0,1.23-2,2.17,2.17,0,0,0-.52-1.55,4.4,4.4,0,0,0-2-1,45.23,45.23,0,0,0-4.49-1q-6.7-1-9.65-3.4a8.24,8.24,0,0,1,.11-12.73,12.93,12.93,0,0,1,8.07-2.33A19,19,0,0,1,134.54,126.81Z" fill="url(#Degradado_sin_nombre_14-6)"/><path d="M51.92,82.79V99.35H2.63V82.79H15.92V19.19H1.73V2.63H39.47V82.79Z" fill="none" stroke-miterlimit="10" stroke-width="0.57" stroke="url(#Degradado_sin_nombre_14-7)"/><path d="M145.62,50.7q0,24.47-9.3,37.19t-26.83,12.74q-17.58,0-26.86-12.74T73.36,50.7q0-23.87,9.21-36.84T109.49.9q17.91,0,27,12.68T145.62,50.7Zm-47.94,0q0,16.81,2.89,24.91t9.05,8.08q6.16,0,9-8.08t2.83-24.91q0-33.11-11.81-33.11-6.16,0-9.05,8.28T97.68,50.7Z" fill="none" stroke-miterlimit="10" stroke-width="0.57" stroke="url(#Degradado_sin_nombre_14-8)"/><path d="M33.47,137.7v11.07h4.84v6.89H24v-2.34a14.32,14.32,0,0,1-8.14,2.79A11.69,11.69,0,0,1,8,153.58a8.53,8.53,0,0,1-3-6.83,9,9,0,0,1,3.31-7.3,13.38,13.38,0,0,1,8.81-2.74,13,13,0,0,1,3.4.41A18.27,18.27,0,0,1,24,138.53v-2.39a4.83,4.83,0,0,0-1.42-3.64,6,6,0,0,0-4.27-1.37,7.55,7.55,0,0,0-5.49,2.39L5.1,132.13q3.51-7.06,14.46-7.06,7.52,0,10.71,3.09T33.47,137.7ZM18,150.17q2.57,0,6-3.08v-2.67a10.57,10.57,0,0,0-5.64-2,4.6,4.6,0,0,0-3.13,1,3.53,3.53,0,0,0-1.08,2.76Q14.12,150.17,18,150.17Z" fill="none" stroke-miterlimit="10" stroke-width="0.57" stroke="url(#Degradado_sin_nombre_14-9)"/><path d="M73.56,136.59v12.18h4.5v6.89H64v-18.3a5.62,5.62,0,0,0-.64-3.06,2.4,2.4,0,0,0-2.15-1,9.43,9.43,0,0,0-5.49,2v13.46h4.67v6.89H41.69v-6.89h4.56v-16H41.69v-7h14v2.82a14.46,14.46,0,0,1,8.77-3.21,8.22,8.22,0,0,1,6.77,2.83C72.79,130.07,73.56,132.88,73.56,136.59ZM65.34,122a12.41,12.41,0,0,1-5.55-1.68,12,12,0,0,0-4.52-1.57c-1.44,0-2.18,1-2.22,3.07H48.67q0-4.66,1.6-6.92a5.6,5.6,0,0,1,4.88-2.27,8.18,8.18,0,0,1,2.27.29,23.84,23.84,0,0,1,3,1.22c1.78.86,2.92,1.37,3.4,1.54a4.44,4.44,0,0,0,1.49.25,1.73,1.73,0,0,0,1.55-.75,5.42,5.42,0,0,0,.56-2.69h4.18Q71.57,122,65.34,122Z" fill="none" stroke-miterlimit="10" stroke-width="0.57" stroke="url(#Degradado_sin_nombre_14-10)"/><path d="M112.15,140.69a15.63,15.63,0,0,1-2.11,8.05,15.09,15.09,0,0,1-5.69,5.61,15.75,15.75,0,0,1-7.88,2,16.25,16.25,0,0,1-8.14-2,14.42,14.42,0,0,1-5.59-5.61,16.17,16.17,0,0,1-2-8.05,15.58,15.58,0,0,1,2.07-8,14.78,14.78,0,0,1,5.67-5.59,16.8,16.8,0,0,1,16,0,14.63,14.63,0,0,1,5.61,5.59A15.94,15.94,0,0,1,112.15,140.69Zm-15.74,8.25a5.09,5.09,0,0,0,4.37-2.17,10.59,10.59,0,0,0,1.58-6.25,9.91,9.91,0,0,0-1.58-6,5.18,5.18,0,0,0-4.43-2.15A5,5,0,0,0,92,134.53q-1.48,2.11-1.48,6.39a9.67,9.67,0,0,0,1.61,5.82A5,5,0,0,0,96.41,148.94Z" fill="none" stroke-miterlimit="10" stroke-width="0.57" stroke="url(#Degradado_sin_nombre_14-11)"/><path d="M134.54,126.81v-1.06h6.8v8.77h-6.8q-.89-3.17-6.55-3.16-4.06,0-4.06,2.27a1.56,1.56,0,0,0,1.08,1.48,12.41,12.41,0,0,0,3.16.8,37.26,37.26,0,0,1,9.19,2.12,9.92,9.92,0,0,1,4.69,3.42,8.78,8.78,0,0,1,1.34,4.93,9,9,0,0,1-3.23,7.36c-2.16,1.75-5.08,2.63-8.78,2.63s-6-.72-7.34-2.16v1.45H117.1v-10.3H124a4.69,4.69,0,0,0,2.06,3.36,7.63,7.63,0,0,0,4.4,1.22,9.37,9.37,0,0,0,3.78-.58,2.08,2.08,0,0,0,1.23-2,2.17,2.17,0,0,0-.52-1.55,4.4,4.4,0,0,0-2-1,45.23,45.23,0,0,0-4.49-1q-6.7-1-9.65-3.4a8.24,8.24,0,0,1,.11-12.73,12.93,12.93,0,0,1,8.07-2.33A19,19,0,0,1,134.54,126.81Z" fill="none" stroke-miterlimit="10" stroke-width="0.57" stroke="url(#Degradado_sin_nombre_14-12)"/></svg>