<svg id="Capa_1" data-name="Capa 1" xmlns="http://www.w3.org/2000/svg" viewBox="0 0 75.03 72.47"><title>Mesa de trabajo 1</title><path d="M45.63,66.76a25.18,25.18,0,0,0-1.84-6.37,13,13,0,0,1,1-1.41,10.11,10.11,0,0,0,10.66,0c2.13,2.47,2.67,6,2.81,7.8Zm-27,3.11A20.84,20.84,0,0,1,23.51,57.5c6.46,4.51,13.05,1.38,15.43,0,3.66,3.94,4.37,9.89,4.5,12.42Zm42.14-1.82c0-.31.19-7.48-4.33-11.62a1.25,1.25,0,0,0-1.59-.07c-.2.15-5,3.67-9.45,0a1.24,1.24,0,0,0-1.6,0,12.13,12.13,0,0,0-1.37,1.54,15.33,15.33,0,0,0-2.51-3,1.24,1.24,0,0,0-1.6-.07c-.3.23-7.41,5.51-14.17,0a1.23,1.23,0,0,0-1.6,0c-.26.22-6.31,5.6-6.46,16.19a1.25,1.25,0,0,0,.36.89,1.22,1.22,0,0,0,.88.37H44.71A1.24,1.24,0,0,0,46,71.15a18.92,18.92,0,0,0-.05-1.9H59.54a1.25,1.25,0,0,0,1.25-1.2Z" fill="#fff"/><path d="M52.13,20.14V15.31H58a.9.9,0,0,1,.9.9V27.14a.9.9,0,0,1-.9.9H52.51a.93.93,0,0,0-.93,1l0,.32-.87-1A1,1,0,0,0,50,28H41a.9.9,0,0,1-.91-.9V24.23h8a4.09,4.09,0,0,0,4.09-4.09Zm-4.22,3.95h-9.7v3.05A2.77,2.77,0,0,0,41,29.91H49.6l2.45,2.82a1,1,0,0,0,.7.32.9.9,0,0,0,.36-.08.92.92,0,0,0,.57-.93l-.16-2.13H58a2.77,2.77,0,0,0,2.76-2.77V16.21A2.77,2.77,0,0,0,58,13.44h-6v6.64a4,4,0,0,1-4,4Z" fill="#fff"/><path d="M16.39,4.11a1.86,1.86,0,0,1,1.85-1.86H47.91a1.86,1.86,0,0,1,1.85,1.86v16a1.85,1.85,0,0,1-1.85,1.86H34.14a1.07,1.07,0,0,0-.82.37L31.1,24.87l.14-1.77a1.11,1.11,0,0,0-.28-.82,1.08,1.08,0,0,0-.79-.34H18.24a1.85,1.85,0,0,1-1.85-1.86v-16Zm-2.15,16a4,4,0,0,0,4,4H29L28.7,28A1.08,1.08,0,0,0,29.36,29a1,1,0,0,0,.41.08,1.05,1.05,0,0,0,.81-.37l4-4.64H47.91a4,4,0,0,0,4-4v-16a4,4,0,0,0-4-4H18.24a4,4,0,0,0-4,4v16Z" fill="#fff"/><path d="M37.55,48.71A9.16,9.16,0,0,1,31,51.41h0a9.22,9.22,0,1,1,6.52-2.7Zm8.15-5.2A6,6,0,0,1,50,41.73a6.07,6.07,0,0,1,6.07,6.06A6.08,6.08,0,0,1,50,53.86h0A6.06,6.06,0,0,1,45.7,43.51ZM50,56.35h0a8.57,8.57,0,0,0,8.55-8.56A8.57,8.57,0,0,0,50,39.24a8.54,8.54,0,0,0-7.3,4.12,11.31,11.31,0,0,0,.06-1.17A11.72,11.72,0,0,0,31,30.49,11.73,11.73,0,0,0,19.33,42.2,11.72,11.72,0,0,0,31,53.9h0a11.68,11.68,0,0,0,10.4-6.36c0,.09,0,.17,0,.26A8.56,8.56,0,0,0,50,56.35Z" fill="#fff"/></svg>