<svg id="Capa_1" data-name="Capa 1" xmlns="http://www.w3.org/2000/svg" viewBox="0 0 75.84 63.09"><title>ico1</title><path d="M65.55,26.06a12.67,12.67,0,0,1,0,1.64,12,12,0,0,1-.33,1.92,17.05,17.05,0,0,1-4.41,7.53c-2.89,3-5.92,5.94-8.88,8.9-3.11,3.11-6.21,6.23-9.34,9.32a4,4,0,0,1-2.42,1.46,2.3,2.3,0,0,1-1.9-.76,2.82,2.82,0,0,1-.45-2.33,5.41,5.41,0,0,1,1.5-2.11c1.42-1.45,2.86-2.87,4.29-4.31.7-.7,1.39-1.4,2.08-2.11s2.87-2.35,1.67-3.47-2.68,1-3.34,1.62l-2.1,2.09c-3.29,3.22-6.54,6.48-9.91,9.6-1.53,1.42-2.72,1.31-3.76.08s-.8-2.32.63-3.76L40,40.17c.53-.52,1-.86,1.07-1.66.07-.59-.14-1.12-.75-1.21a2.17,2.17,0,0,0-2.13.9L25,51.36c-1.45,1.44-3.06,1.41-4.11,0-.79-1.08-.57-2.29.71-3.58Q28.32,41,35,34.36c.73-.72,1.3-1.54.41-2.38s-1.59-.09-2.24.57Q28,37.71,22.88,42.86a7,7,0,0,1-1.5,1.23A2.44,2.44,0,0,1,18,42.81c-.55-1.37.16-2.24,1-3.11q8.56-8.54,17.07-17.11l2.34,2.35a4.07,4.07,0,0,0,5.76,0l.45-.45a4,4,0,0,0,1.2-2.88,4,4,0,0,0-1.06-2.73l-5.18-5.24h0l-1-1L40,11.24A10.06,10.06,0,0,1,45.58,9,10.21,10.21,0,0,1,51,10.2l1.54-1.53L57.42,3.8,72.62,19l-7.07,7.07ZM58.09,46.3a2.42,2.42,0,0,1-3.39,1.27,2.67,2.67,0,0,1-.36-.22q1.71-1.7,3.4-3.41a2.21,2.21,0,0,1,.35,2.36Zm-2.94,8.51c-1.06,1.44-2.67,1.47-4.11,0-.72-.72-1.43-1.44-2.15-2.15,1.18-1.16,2.37-2.3,3.55-3.47l2,2c1.29,1.29,1.51,2.51.72,3.58Zm-7.27,3.81c-1,1.22-2.24,1.33-3.76-.08l-.71-.67a6.81,6.81,0,0,0,1-.75L47,54.58l.28.27c1.44,1.44,1.63,2.6.64,3.77Zm-10,.94a2.34,2.34,0,0,1-1.9.76,4.09,4.09,0,0,1-2.42-1.47l-1-1A15.16,15.16,0,0,0,35,56.15a4.33,4.33,0,0,0,1.78,2,5.58,5.58,0,0,0,1.48.61,1.71,1.71,0,0,1-.42.84Zm-22.56-19a16.93,16.93,0,0,1-4.39-7.49,13.74,13.74,0,0,1-.32-1.92,15,15,0,0,1-.06-1.65L3.46,22.48,18.65,7.29l4.87,4.87.32.32,0,0,2.35.19.16-.38c.92-.63,4.78-2.77,9.92,1.15l6.8,6.84a1.82,1.82,0,0,1,0,2.58l-.45.44a1.82,1.82,0,0,1-2.57,0l-7-7-1.7,1.18,1.89,2.2.81.82L31.66,23a1.3,1.3,0,0,0-.36.64l-.12.12q-7,7-14,14.05a7.4,7.4,0,0,0-1.85,2.83ZM56.86,1.18,50.52,7.52c-.32,0-.64-.08-1-.1-2.27-.92-6.31-1.57-11,2.08l-.11.09-1.55,1.57c-5.86-4-10.5-1.53-11.81-.66L19.22,4.66.84,23.05l7,7a17.75,17.75,0,0,0,3.32,9.56,24.49,24.49,0,0,0,3,3.7c1.43,1.46,2.89,2.89,4.33,4.34-1.56,2.29-.89,4.18.74,5.88s3.26,2,5.56,1.3a.09.09,0,0,1,.06,0c1.64,2.46,3.17,3.66,4.81,3.79l2,2a6.38,6.38,0,0,0,7.57,1,4.34,4.34,0,0,0,1.78-2c4.14,3.48,6.9,3.54,10.15-1.33a0,0,0,0,1,0,0c2.3.66,3.86.46,5.56-1.31s2.39-3.8.46-6.27a8,8,0,0,1-.49-.66,3.85,3.85,0,0,0,3.06-1.61c1.6-2.07,1.51-4.24-.21-6.38l2.26-2.26A25.75,25.75,0,0,0,65,36.09a17.86,17.86,0,0,0,3.32-9.56l7-7L56.86,1.18Z" fill="#fff"/></svg>