<svg id="Capa_1" data-name="Capa 1" xmlns="http://www.w3.org/2000/svg" viewBox="0 0 75.03 72.47"><title>ico4</title><path d="M37.32,54.73a7.48,7.48,0,0,1,5.54-2.46,7,7,0,0,1,.77,0,7.46,7.46,0,0,1,5.88,10.82,5,5,0,0,0-3.08-1.65,4.67,4.67,0,0,0,1.15-3.08,4.72,4.72,0,1,0-8.15,3.24,4.92,4.92,0,0,0-2.84,2.15,7.45,7.45,0,0,1,.73-9.06ZM42.86,62a3.58,3.58,0,1,1,3.58-3.58A3.58,3.58,0,0,1,42.86,62Zm-9.4-1.28a9.46,9.46,0,0,0,2.73,5.73,1,1,0,0,0,.7.29,1,1,0,0,0,.3,0,1,1,0,0,0,.67-.77,3,3,0,0,1,3-2.49h4.94a3,3,0,0,1,2.8,1.93,1,1,0,0,0,1.69.26,9.43,9.43,0,0,0-6.42-15.26c-.34,0-.66-.05-1-.05a9.46,9.46,0,0,0-9.4,10.41Z" fill="#fff"/><path d="M20.79,14.71a15.07,15.07,0,0,1,12.11,24,8,8,0,0,0-7-6.35,8.28,8.28,0,1,0-10.13,0h-.08l-.12,0a7.94,7.94,0,0,0-6.84,6.32,14.92,14.92,0,0,1-3-9A15.1,15.1,0,0,1,20.79,14.71Zm.91,17.65H19.87a6.57,6.57,0,1,1,1.83,0ZM8.81,41.91a1,1,0,0,0,1.69-.71v-.87a6,6,0,0,1,5.31-5.95h0a4.88,4.88,0,0,1,.64,0h8.6a6,6,0,0,1,6,6v.87a1,1,0,0,0,.61.92,1,1,0,0,0,.38.07,1,1,0,0,0,.69-.28,17,17,0,1,0-29-12.12A16.94,16.94,0,0,0,8.81,41.91Z" fill="#fff"/><path d="M58.82,5.65A10.8,10.8,0,1,1,48,16.44,10.8,10.8,0,0,1,58.82,5.65Zm0,23.57A12.78,12.78,0,1,0,46.05,16.44,12.79,12.79,0,0,0,58.82,29.22Z" fill="#fff"/><path d="M20.79,11.79A18.08,18.08,0,0,1,37.13,22.28a1,1,0,0,0,1.23.52l6.58-2.32a1,1,0,0,0,.63-1.15,13.58,13.58,0,1,1,.79,2.46,1,1,0,0,0-1.24-.54l-6.45,2.28a1,1,0,0,0-.61,1.21A17.9,17.9,0,0,1,31.4,44.29a1,1,0,0,0-.15,1.46L36,51a1,1,0,0,0,1.27.17,10.37,10.37,0,0,1,6.64-1.64,10.24,10.24,0,0,1-1,20.42c-.35,0-.7,0-1,0a10.22,10.22,0,0,1-9.14-9.14,10.12,10.12,0,0,1,2.56-7.87l.11-.12a1,1,0,0,0,0-1.31l-5-5.56a1,1,0,0,0-.74-.32,1,1,0,0,0-.46.11,17.7,17.7,0,0,1-8.36,2.08,18,18,0,0,1,0-36Zm-20,18a19.95,19.95,0,0,0,28.57,18l3.91,4.34a12.22,12.22,0,0,0,8.33,19.74c.4,0,.82.06,1.24.06a12.24,12.24,0,0,0,9-4A12.05,12.05,0,0,0,55,58.5a12.19,12.19,0,0,0-18.1-9.41l-3.48-3.87a20.07,20.07,0,0,0,7.34-15.43,19.75,19.75,0,0,0-.57-4.7l4.73-1.68a15.78,15.78,0,1,0-1.45-4.52l-4.95,1.75A20,20,0,0,0,.81,29.79Z" fill="#fff"/><rect x="54.86" y="14.71" width="8.28" height="7.34" rx="1.07" fill="#fff" stroke="#fff" stroke-miterlimit="10" stroke-width="1.14"/><path d="M56.83,14.84V12.19a.35.35,0,0,1,.35-.35h3.33a.35.35,0,0,1,.35.35v2.65H62V12.19a1.49,1.49,0,0,0-1.49-1.49H57.18a1.49,1.49,0,0,0-1.49,1.49v2.65Z" fill="#fff"/><rect x="57.76" y="18.2" width="2.71" height="0.28" fill="#fff"/><rect x="59" y="17.39" width="0.29" height="2.03" fill="#fff"/></svg>